<?xml version="1.0" encoding="utf-8"?>
<!-- Generated by IcoMoon.io -->
<!DOCTYPE svg PUBLIC "-//W3C//DTD SVG 1.1//EN" "http://www.w3.org/Graphics/SVG/1.1/DTD/svg11.dtd">
<svg version="1.1" xmlns="http://www.w3.org/2000/svg" xmlns:xlink="http://www.w3.org/1999/xlink" preserveAspectRatio="xMinYMin meet" viewBox="0 0 18 18">
<path d="M3.666 15.489h2.32v-6.972h-2.32v6.972zM6.137 6.369c-0.007-0.348-0.127-0.636-0.361-0.864s-0.546-0.342-0.934-0.341-0.705 0.114-0.95 0.341c-0.244 0.227-0.367 0.515-0.367 0.864 0 0.342 0.119 0.628 0.357 0.858s0.548 0.346 0.929 0.346h0.010c0.395 0 0.713-0.116 0.954-0.346s0.361-0.516 0.361-0.858zM12.014 15.489h2.32v-3.998c0-1.032-0.244-1.811-0.735-2.341-0.488-0.529-1.135-0.793-1.938-0.793-0.91 0-1.61 0.392-2.099 1.176h0.020v-1.015h-2.32c0.020 0.442 0.020 2.766 0 6.972h2.32v-3.897c0-0.254 0.023-0.442 0.070-0.563 0.098-0.234 0.25-0.434 0.45-0.598s0.449-0.248 0.744-0.248c0.776 0 1.164 0.525 1.164 1.577v3.727l0.005 0.002zM16.714 5.464v9.642c0 0.795-0.282 1.478-0.848 2.044s-1.248 0.848-2.044 0.848h-9.642c-0.797 0-1.478-0.282-2.044-0.848s-0.848-1.248-0.848-2.044v-9.642c0-0.796 0.282-1.478 0.848-2.044s1.248-0.848 2.044-0.848h9.642c0.796 0 1.478 0.282 2.044 0.848s0.848 1.248 0.848 2.044z" fill="#252525"></path>
</svg>
