<svg display="none" width="0" height="0" version="1.1" xmlns="http://www.w3.org/2000/svg" xmlns:xlink="http://www.w3.org/1999/xlink">
    <defs>
        <symbol id="icon-runkeeper" viewBox="0 0 1024 1024">
            <title>RunKeeper</title>
            <path d="M839.497 200.375c-2.67-8.375-14.446-15.323-23.808-9.253-6.107 3.95-12.581 7.205-18.651 11.154-10.569 6.912-17.115 15.799-14.592 29.403 0.951 5.376 0.841 10.935 1.682 16.421 1.499 10.203-5.339 21.577-14.775 25.417-9.179 3.73-18.761-0.146-22.126-9.472-3.694-10.057-6.985-20.297-9.545-30.757-3.072-12.617-6.034-25.234-9.691-37.705-5.266-17.737-19.529-25.015-35.913-29.147-11.154-2.816-22.711-4.315-30.866-13.714-7.387-8.558-6.619-18.249 2.158-25.563 4.023-3.401 8.631-5.925 13.129-8.594 11.374-6.802 17.042-16.567 16.055-29.879-0.841-12.069 0.878-23.296 8.265-33.39 5.157-7.058 3.877-14.738-1.463-20.736-12.654-14.007-24.466-29.696-45.275-32-8.777-0.951-17.518-4.681-26.514-1.28-8.814 3.365-17.701 6.656-26.551 10.13-10.167 4.059-17.445 11.337-22.528 20.992-3.511 6.619-7.168 13.166-10.898 19.675-8.192 14.373-11.045 28.233-0.658 43.447 7.826 11.41 2.377 23.845-10.35 29.184-9.216 3.84-18.761 1.902-25.344 2.341-12.946 0.219-23.259-1.097-32.987 3.621-27.867 13.495-56.064 26.258-83.639 40.375-21.285 10.935-41.911 23.296-62.574 35.365-8.009 4.645-15.433 10.277-21.321 17.591-3.913 4.901-6.985 10.057-7.205 16.823-0.914 24.759-1.499 49.518 0.293 74.203 0.768 11.337 1.975 22.857 10.423 32.037 12.507 13.531 11.922 30.501 9.472 46.738-1.463 9.728-1.975 19.237-1.938 28.965 0.037 2.487 0.293 5.010 0.073 7.497-0.695 6.949 2.011 12.727 6.181 17.957 4.352 5.486 9.618 10.167 15.287 14.263 5.449 3.913 11.191 4.791 17.481 1.134 6.473-3.767 13.349-6.802 20.078-10.13 11.739-5.888 18.798-15.982 6.51-30.098-4.498-5.157-7.57-11.045-9.618-17.554-4.169-13.349-8.375-26.661-12.946-39.863-7.863-22.565-12.654-45.641-13.093-69.595-0.146-7.278 2.487-13.129 7.058-18.322 5.925-6.693 13.385-11.227 21.248-15.141 8.302-4.133 17.006-7.205 25.71-10.203 15.141-5.193 30.135-10.679 45.312-15.726 17.957-5.961 26.917 5.742 24.283 19.017-2.048 10.277-0.658 20.846 0.585 31.342 2.743 23.186 2.853 46.263-3.438 69.12-1.682 6.181-4.608 11.045-9.362 14.848-8.375 6.693-12.581 15.287-12.727 25.966 0 2.487-0.695 4.901-1.499 7.278-4.059 11.776-8.375 23.552-11.959 35.474-3.547 11.703-7.278 23.333-7.607 35.803-0.256 9.728 2.414 18.834 4.645 28.014 1.536 6.4 1.609 12.178-1.938 17.957-5.083 8.338-9.106 17.225-13.202 26.039-14.629 31.488-27.648 63.598-37.888 96.805-4.206 13.678-9.289 26.917-22.418 35.072-8.265 5.157-16.018 11.154-24.466 15.982-30.391 17.298-53.248 41.691-69.925 72.302-8.009 14.665-14.775 29.989-23.808 44.142-8.265 12.837-16.274 25.746-24.503 38.583-3.877 5.998-9.179 9.509-16.713 9.765-6.766 0.256-13.422 1.39-20.151 2.267-7.497 0.987-13.056 4.937-16.165 11.776-2.962 6.546-3.986 13.531-2.267 20.553 1.463 5.888 1.682 11.813 1.938 17.81 0.183 4.242 0.329 8.485 0.914 12.727 3.511 24.174 7.497 48.311 10.606 72.521 1.536 12.032 7.387 19.602 18.432 24.027 10.094 4.059 15.214 2.121 18.725-8.411 3.035-8.997 4.498-18.395 5.632-27.794 1.207-10.13 3.73-19.785 11.374-27.063 11.045-10.533 15.104-24.283 18.725-38.437 3.913-15.25 8.741-30.318 16.238-44.142 16.091-29.769 38.912-53.614 66.45-73.106 7.79-5.486 15.214-11.41 21.175-18.907 9.253-11.557 21.065-20.553 30.683-31.781 5.778-6.839 14.080-11.154 22.089-15.287 19.675-10.203 35.035-24.503 47.982-42.862 25.088-35.584 55.223-67.035 84.736-98.926 5.522-5.998 10.021-9.801 18.981-6.144 7.497 3.035 11.41 5.705 12.434 13.751 1.39 11.081-1.28 21.102-6.802 30.83-12.288 21.76-24.137 43.666-36.096 65.646-12.325 22.601-25.198 44.91-44.325 62.683-16.165 14.994-28.855 32.439-37.010 52.992-6.107 15.397-8.009 30.537 0.439 46.153 8.887 16.567 19.2 32.146 30.391 47.177 5.669 7.68 12.581 14.226 21.687 17.92 2.926 1.17 5.595 1.243 8.704 0.475 8.594-2.231 11.045-8.997 11.922-16.347 1.061-8.923 1.353-18.139-0.512-26.88-2.889-13.934-2.158-27.904-2.67-41.874-0.366-9.911 1.39-19.273 5.815-28.233 2.962-6.034 5.339-12.398 7.497-18.798 4.535-13.495 11.593-25.234 22.089-35.109 8.338-7.863 16.421-16.091 23.991-24.722 18.834-21.394 39.278-41.216 58.478-62.318 17.262-19.017 35.109-37.595 52.59-56.466 6.437-6.912 11.118-15.287 12.361-24.466 3.657-27.063-4.425-49.957-27.136-66.341-12.763-9.179-26.185-17.408-39.022-26.478-7.973-5.595-16.969-9.691-24.027-16.53-6.473-6.29-8.009-12.507-3.694-20.261 6.839-12.251 12.215-25.161 18.359-37.705 14.994-30.72 29.989-61.477 44.983-92.197 2.926-6.071 5.339-12.434 8.85-18.139 3.986-6.546 8.594-6.107 12.251 0.731 1.426 2.633 2.523 5.449 3.438 8.302 4.425 14.555 8.631 29.184 13.166 43.703 2.304 7.351 3.877 14.994 8.119 21.687 5.339 8.448 12.91 10.057 20.919 4.206 2.011-1.463 3.913-3.182 5.376-5.157 3.474-4.571 6.729-9.326 9.911-14.080 15.872-23.625 31.049-47.762 46.007-71.973 12.8-20.699 24.174-41.911 28.745-66.231 1.865-9.874 3.803-19.566-1.317-29.111-0.987-1.719-1.024-3.877-1.609-5.778z"></path>
        </symbol>
        <symbol id="icon-angellist" viewBox="0 0 1024 1024">
            <title>AangelList</title>
            <path d="M678.172 273.522l-60.473 174.080 62.066 11.15c58.368-159.573 87.609-251.221 87.609-274.887 0-19.854-6.713-29.753-20.196-29.753-20.139 0.057-43.179 39.879-68.949 119.41v0zM519.396 638.123l17.522 46.649c13.141-14.848 25.657-26.681 37.717-35.612l-17.522-2.901c0 0-6.827-1.138-20.423-3.755-13.653-2.446-19.399-3.925-17.237-4.437v0zM364.43 162.702c0 34.702 28.103 126.805 84.366 276.537 6.315-3.527 14.962-5.291 26.055-5.291 5.291 0 18.546 0.853 39.822 2.617l-64.228-186.254c-26.51-77.824-48.242-116.736-65.252-116.736-6.77 0-11.89 3.072-15.417 9.273s-5.234 12.857-5.234 19.911v0 0zM322.56 565.419c0 12.743 9.159 33.792 27.307 63.147s39.026 56.434 62.35 81.294c23.381 24.747 41.017 37.205 53.077 37.205 5.006 0 9.5-2.219 13.483-6.827s6.087-9.273 6.087-14.279c0-8.533-5.689-26.567-16.953-54.158-4.551-11.378-10.24-24.064-16.953-38.286-6.713-14.165-15.076-29.867-25.202-47.218s-20.935-31.687-32.654-43.008c-11.662-11.378-22.642-16.953-32.882-16.953-7.111 0-15.189 4.779-24.121 14.336s-13.483 17.749-13.54 24.917v0 0zM238.706 743.253c0 14.45 4.437 32.882 13.255 55.182 20.878 51.314 53.362 91.534 97.394 120.491s93.81 43.52 149.39 43.52c80.327 0 147.854-30.094 202.695-90.226 53.817-59.847 80.725-135.282 80.725-226.532 0-15.303-0.341-27.079-0.626-35.612-0.455-8.533-2.389-19.513-6.144-32.939s-9.159-23.381-16.27-29.639c-19.627-17.408-57.173-30.72-112.185-40.107-55.125-9.387-102.912-13.995-143.531-13.995-13.028 0-21.732 1.934-25.998 5.803-4.21 1.707-6.315 7.908-6.315 18.546 0 12.060 3.755 22.642 11.378 31.858s17.408 16.27 29.468 21.163c12.004 5.006 25.714 9.102 41.131 12.459s30.834 5.291 46.421 6.087 30.663 1.365 45.113 2.162 26.795 0.683 37.205 0h12.231c8.42 0 15.474 3.47 21.163 10.069 5.291 6.827 8.59 16.441 10.069 29.241-9.899 9.899-26.965 19.513-50.972 28.729-21.618 7.794-38.059 15.986-49.38 24.462-22.642 16.27-41.927 36.409-57.515 60.416-15.815 24.064-23.609 48.242-23.609 72.761 0 10.923 3.243 26.681 9.785 46.99 6.599 20.366 9.842 35.897 9.842 46.421l-1.65 6.315c-1.422 4.267-2.162 6.77-2.162 7.452-48.526-3.527-74.297-41.7-77.426-114.631-2.844 0.796-10.126 1.081-21.845 1.081 0.683 2.446 1.081 6.201 1.081 11.207 0 18.773-7.168 34.475-21.504 47.445s-31.061 19.342-50.176 19.342c-29.013 0-58.482-13.767-88.405-41.415-29.867-27.591-44.885-55.751-44.885-84.366 0-12.117 5.803-23.893 17.522-35.612 18.375 22.585 29.013 36.011 31.858 40.391 27.25 36.807 50.745 55.239 70.599 55.239 4.21 0 8.875-1.536 13.995-4.551s7.737-6.599 7.737-10.866c0-12.060-15.474-37.604-46.421-76.914s-51.598-58.937-61.838-58.937c-15.246 0-27.591 7.851-37.205 23.609-9.557 15.758-14.279 31.744-14.279 48.014h0.171zM178.176 747.975c0-35.783 7.566-64.512 22.585-86.471s39.253-37.49 72.42-46.706c-9.899-26.226-14.848-44.601-14.848-55.239 0-21.959 10.752-43.634 32.37-65.365 21.618-21.561 43.122-32.313 64.796-32.313 10.24 0 22.642 2.617 37.205 7.851-57.685-163.442-86.471-263.737-86.471-300.885 0-28.274 7.282-51.371 21.788-69.234s35.499-26.795 63.090-26.795c46.364 0 103.879 102.798 172.487 308.281 2.105 6.030 3.527 10.126 4.21 12.174 2.162-5.689 7.282-19.684 15.36-42.155 8.135-22.471 15.872-43.463 23.154-62.919 7.225-19.456 16.839-42.041 28.672-67.641s23.211-47.445 34.247-65.365c11.036-17.863 23.438-33.223 37.433-45.909s27.534-19.058 40.562-19.058c25.145 0 44.942 8.704 59.506 25.998 14.45 17.294 21.675 38.912 21.675 64.796 0 38.229-28.16 135.509-84.423 291.897 21.675 5.291 39.367 13.426 53.305 24.462 14.108 10.923 24.405 24.747 31.118 41.415s11.378 33.166 13.767 49.55c2.503 16.441 3.698 36.011 3.698 58.709 0 53.077-8.306 102.684-24.974 148.537-16.555 46.080-39.993 85.902-70.087 119.467s-67.47 60.245-111.957 79.701c-44.601 19.456-93.753 29.184-147.57 29.184-39.31 0-78.734-7.396-118.329-22.187-52.679-20.309-98.361-54.101-136.875-101.604-38.571-47.673-57.913-98.361-57.913-152.178v0 0z"></path>
        </symbol>
        <symbol id="icon-behance" viewBox="0 0 1024 1024">
            <title>Behance</title>
            <path d="M894.748 467.228h-237.227v57.572h237.227v-57.628zM777.671 665.088c-27.819 0-50.517 8.135-67.755 24.462-17.408 16.27-27.022 38.343-28.843 66.219h189.44c-5.461-60.416-36.466-90.567-92.786-90.567v-0.057zM785.067 936.676c19.513 0 38.457-5.006 56.661-14.848 18.318-9.899 30.094-23.438 35.271-40.391h102.628c-30.891 95.118-96.996 142.45-198.201 142.45-66.219 0-119.125-20.537-158.094-61.44-39.083-40.789-58.709-94.549-58.709-160.996 0-64.455 20.309-117.874 60.587-160.427s92.501-63.886 156.217-63.886c42.667 0 79.986 10.581 111.673 31.63s55.41 48.754 71.054 83.058 23.438 72.647 23.438 115.143c0 5.291-0.341 12.459-0.853 21.902h-305.55c0 34.418 8.875 60.928 26.681 79.588 17.749 18.716 43.463 28.103 77.198 28.103l-0.114 0.114zM165.205 913.522h137.387c63.488 0 95.232-25.828 95.232-77.54 0-55.751-30.834-83.57-92.501-83.57h-140.231v161.166zM165.205 664.121h130.503c24.121 0 43.179-5.689 57.287-17.010 14.052-11.207 21.106-28.843 21.163-52.679 0-44.544-29.355-66.901-88.178-66.901h-120.718l-0.057 136.59zM36.523 427.691h275.854c26.965 0 50.972 2.162 72.021 6.485s40.562 11.719 58.709 22.073c18.091 10.354 32.085 25.259 41.813 44.772s14.677 43.406 14.677 71.509c0 55.979-26.624 96.768-79.929 122.197 35.328 9.956 61.895 27.762 79.929 53.419 17.92 25.714 26.965 57.287 26.965 94.777 0 23.211-3.755 44.43-11.378 63.431s-17.806 34.987-30.663 48.014-28.103 23.95-45.739 32.939c-17.749 8.932-36.352 15.474-56.206 19.513-19.854 3.982-40.562 5.916-62.236 5.916h-283.705l0.057-585.045z"></path>
        </symbol>
        <symbol id="icon-book" viewBox="0 0 1024 1024">
            <title>Subject</title>
            <path d="M940.146 394.695c14.165 20.139 17.351 43.008 9.557 68.494l-145.92 480.711c-6.713 22.642-20.309 41.643-40.505 57.173-20.423 15.303-42.098 22.983-65.081 22.983h-489.813c-27.25 0-53.532-9.387-78.791-28.331-25.259-19.001-42.894-42.155-52.793-69.803-8.533-23.609-8.818-46.137-1.081-67.243 0-1.422 0.569-6.201 1.593-14.393s1.707-14.734 2.105-19.627c0.398-2.844-0.171-6.656-1.593-11.378s-1.991-8.249-1.593-10.297c0.683-3.925 2.105-7.566 4.21-11.207 2.105-3.527 5.063-7.737 8.761-12.402 3.698-4.779 6.599-8.875 8.761-12.459 8.135-13.426 16.043-29.639 23.893-48.583s13.141-35.157 15.929-48.583c1.081-3.584 1.138-8.818 0.284-15.986s-0.967-12.060-0.284-14.905c1.081-3.925 4.039-8.818 9.045-14.848 5.006-6.087 8.021-10.126 9.045-12.231 7.452-12.686 14.848-29.013 22.3-48.754s11.833-35.726 13.255-47.73c0.398-3.186-0.057-8.818-1.365-16.953s-1.138-13.028 0.228-14.905c1.422-4.551 5.291-9.956 11.662-16.213s10.24-10.183 11.662-11.947c6.713-9.216 14.222-24.121 22.585-44.885 8.306-20.651 13.198-37.774 14.62-51.143 0.398-2.844-0.171-7.339-1.593-13.483s-1.707-10.866-1.081-13.995c0.683-2.788 2.276-6.030 4.779-9.557s5.689-7.623 9.557-12.174 6.884-8.306 9.045-11.15c2.788-4.21 5.746-9.671 8.761-16.213s5.689-12.743 7.908-18.546c2.219-5.803 5.12-12.174 8.533-19.058s6.827-12.629 10.354-16.953c3.527-4.437 8.249-8.59 13.995-12.459s12.174-5.973 19.058-6.087 15.303 0.796 25.202 2.958l-0.569 1.593c13.426-3.186 22.471-4.779 27.079-4.779h403.797c26.226 0 46.421 9.899 60.473 29.696s17.351 42.837 9.557 69.006l-145.351 480.768c-12.686 41.984-25.372 69.177-37.945 81.408-12.516 12.174-35.271 18.318-68.21 18.318h-461.028c-9.557 0-16.27 2.617-20.139 7.851-3.925 5.689-4.039 13.255-0.569 22.869 8.533 24.747 33.963 37.205 76.402 37.205h489.813c10.297 0 20.252-2.674 29.696-8.249 9.614-5.518 15.815-12.8 18.546-22.016l159.232-523.662c2.503-7.794 3.47-17.863 2.617-30.265 13.483 5.291 23.893 12.914 31.289 22.869h-0.114l0.057 0.057zM375.637 395.719c-1.422 4.551-1.081 8.59 1.081 11.947s5.689 5.063 10.638 5.006h322.617c4.551 0 9.102-1.65 13.483-5.006s7.282-7.339 8.761-11.947l11.207-33.963c1.422-4.551 1.024-8.59-1.081-11.947s-5.689-5.006-10.638-5.006h-322.617c-4.551 0-9.102 1.65-13.483 5.006s-7.339 7.339-8.761 11.947l-11.15 33.963zM331.605 531.57c-1.422 4.551-1.081 8.59 1.081 11.89 2.162 3.47 5.689 5.063 10.638 5.063h322.617c4.551 0 9.102-1.65 13.483-5.063 4.437-3.243 7.282-7.282 8.761-11.89l11.15-33.963c1.422-4.551 1.081-8.59-1.081-11.947s-5.689-5.006-10.638-5.006h-322.617c-4.551 0-9.102 1.65-13.483 5.006s-7.339 7.339-8.761 11.947l-11.15 33.963z"></path>
        </symbol>
        <symbol id="icon-education" viewBox="0 0 1024 1024">
            <title>Education</title>
            <path d="M788.537 655.872l8.021 140.459c1.138 20.48-11.036 39.367-36.352 56.946-25.486 17.522-60.302 31.289-104.391 41.529s-92.103 15.417-143.588 15.417c-51.598 0-99.442-5.177-143.531-15.417-44.146-10.126-78.962-24.007-104.448-41.529s-37.66-36.466-36.409-56.946l8.021-140.459 255.147 80.441c6.542 2.105 13.653 3.129 21.333 3.129s14.848-1.081 21.39-3.129l254.976-80.441zM1024.057 511.829c0 6.827-3.186 11.378-9.785 13.767l-497.778 156.501c-1.138 0.341-2.674 0.455-4.494 0.455s-3.243-0.114-4.494-0.455l-289.849-91.591c-12.743 10.069-23.268 26.681-31.573 49.55-8.306 22.983-13.369 49.55-15.132 79.417 18.603 10.638 28.046 26.681 28.046 48.469 0 20.48-8.59 36.238-25.771 47.559l25.771 192.569c0.626 4.096-0.569 7.851-3.527 11.15-2.674 3.186-6.258 4.949-10.695 4.949h-85.333c-4.494 0-8.021-1.65-10.695-4.949-3.015-3.243-4.153-6.997-3.584-11.15l25.771-192.569c-17.237-11.321-25.771-27.079-25.771-47.559 0-21.788 9.671-38.059 28.843-49.436 3.243-61.383 17.806-110.251 43.577-146.773l-148.025-46.080c-6.542-2.389-9.785-6.997-9.785-13.767s3.243-11.378 9.785-13.767l497.835-156.501c1.195-0.228 2.674-0.398 4.437-0.398s3.243 0.114 4.494 0.455l497.835 156.501c6.542 2.389 9.785 6.997 9.728 13.767v0z"></path>
        </symbol>
        <symbol id="icon-email" viewBox="0 0 1024 1024">
            <title>Email</title>
            <path d="M890.482 945.152v-378.482c-10.581 11.776-21.902 22.642-33.963 32.54-88.064 67.641-158.094 123.221-209.92 166.571-16.782 14.108-30.322 25.145-40.903 32.939-10.468 7.908-24.633 15.872-42.61 23.95-17.92 8.078-34.759 12.117-50.517 12.117h-0.967c-15.758 0-32.654-3.982-50.574-12.117s-32.142-15.986-42.61-23.95c-10.468-7.851-24.121-18.887-40.903-32.939-51.883-43.463-121.913-98.93-209.92-166.571-12.174-9.842-23.495-20.651-33.963-32.484v378.482c0 4.21 1.536 7.908 4.665 11.15 3.129 3.129 6.77 4.665 11.15 4.665h725.447c4.267 0 7.908-1.479 11.15-4.665 3.072-3.186 4.551-6.77 4.551-11.15v0 0zM890.482 427.179v-12.117c0 0-0.057-2.105-0.341-6.372-0.114-4.267-0.626-6.315-1.479-6.144-0.796 0.114-1.707-1.365-2.674-4.494-0.91-3.129-2.389-4.324-4.437-3.698-1.934 0.626-4.21 0.228-6.827-1.195h-725.447c-4.21 0-8.021 1.536-11.15 4.665s-4.665 6.77-4.665 11.093c0 55.182 24.121 101.831 72.42 139.947 63.431 49.892 129.252 102.002 197.632 156.217 1.934 1.707 7.737 6.542 17.294 14.45s17.067 14.222 22.642 18.489c5.575 4.21 12.914 9.557 21.902 15.474 9.045 6.087 17.294 10.638 24.917 13.596 7.566 3.015 14.677 4.494 21.163 4.494h0.967c6.542 0 13.653-1.479 21.163-4.494 7.509-2.958 15.815-7.396 24.917-13.596 9.045-6.087 16.327-11.264 21.959-15.474 5.518-4.267 13.141-10.411 22.699-18.489s15.303-12.914 17.294-14.45c68.267-54.158 134.201-106.325 197.632-156.217 17.579-14.165 34.247-33.109 49.55-56.946 15.246-23.78 22.869-45.454 22.869-64.853h0.057zM953.515 408.974v536.178c0 21.675-7.623 40.277-23.154 55.694s-33.963 23.154-55.694 23.154h-725.39c-21.675 0-40.277-7.737-55.751-23.154-15.417-15.417-23.154-33.963-23.154-55.694v-536.178c0-21.675 7.737-40.277 23.154-55.751s33.906-23.154 55.751-23.154h725.39c21.675 0 40.277 7.737 55.694 23.154s23.154 33.963 23.154 55.751z"></path>
        </symbol>
        <symbol id="icon-facebook" viewBox="0 0 1024 1024">
            <title>Facebook</title>
            <path d="M950.784 859.477c0 45.227-16.043 84.082-48.242 116.281s-70.94 48.242-116.281 48.242h-109.682v-347.477h116.053l17.18-128h-133.177v-81.749c0-20.594 5.291-36.409 15.986-47.445s29.013-16.555 54.841-16.555l75.435-0.569v-118.272c-36.523-3.47-70.827-5.177-102.855-5.177-51.826 0-93.412 15.303-124.53 46.023s-46.82 73.614-46.82 128.853v94.834h-128v128h128v347.477h-310.841c-45.34 0-84.082-16.043-116.281-48.242s-48.242-70.997-48.242-116.281v-548.523c0-45.284 16.043-84.082 48.242-116.281s70.997-48.242 116.281-48.242h548.523c45.227 0 84.082 16.043 116.281 48.242s48.242 70.997 48.242 116.281v548.523h-0.057z"></path>
        </symbol>
        <symbol id="icon-foursquare" viewBox="0 0 1024 1024">
            <title>Foursquare</title>
            <path d="M752.754 320.967l21.106-110.933c1.991-8.761 0.284-16.384-5.063-22.869s-12.117-9.728-20.025-9.728h-406.869c-8.761 0-16.043 3.186-22.016 9.728s-8.818 13.483-8.818 21.106v629.077c0 2.617 1.138 2.901 3.47 0.626l166.286-201.102c8.761-9.899 15.986-16.27 21.675-19.115 5.689-2.731 14.905-4.267 27.477-4.267h136.533c8.363 0 15.417-2.674 21.163-8.306 5.689-5.518 9.159-11.15 10.183-16.839 9.159-49.55 16.213-85.902 21.163-109.113 1.536-8.021-0.683-15.588-6.599-22.869-6.030-7.225-12.914-10.809-20.821-10.809h-167.936c-11.093 0-20.196-3.584-27.477-10.809s-10.809-16.384-10.809-27.364v-24.007c0-11.093 3.584-20.082 10.809-27.136s16.384-10.581 27.477-10.581h197.746c6.827 0 13.483-2.617 20.025-7.737s10.297-10.752 11.378-16.896l-0.057-0.057zM882.517 194.105c-5.689 27.819-15.986 78.507-30.606 152.235-14.677 73.671-27.819 140.402-39.765 200.021s-18.489 92.615-20.025 99.044c-2.219 8.363-4.039 14.507-5.12 18.603-1.195 3.925-3.755 10.183-8.078 18.546-4.153 8.363-8.818 14.677-13.995 18.83-5.12 4.21-12.402 8.249-22.073 12.060-9.557 3.755-20.537 5.746-33.109 5.689h-154.795c-5.006 0-9.159 1.991-12.629 5.689-3.072 3.47-84.139 97.451-243.371 282.283-8.363 9.557-19.57 14.905-33.451 16.27s-23.154 0.341-27.705-3.129c-20.935-8.363-31.403-27.079-31.403-55.922v-805.604c0-20.935 7.225-40.505 21.675-58.539s37.319-27.136 68.551-27.136h507.449c36.181 0 60.302 10.126 72.533 30.265s14.165 50.517 5.803 90.852v0 0zM882.517 194.105l-90.226 451.413c1.536-6.485 8.192-39.481 20.025-99.157 11.833-59.563 25.031-126.35 39.765-199.964 14.564-73.671 24.804-124.416 30.549-152.235v0z"></path>
        </symbol>
        <symbol id="icon-github" viewBox="0 0 1024 1024">
            <title>GitHub</title>
            <path d="M984.69 574.35c0 102.969-30.151 195.641-90.169 277.959s-137.785 139.15-232.96 170.837c-11.093 2.105-19.058 0.683-24.405-4.21-5.12-4.949-7.68-11.093-7.68-18.546v-129.877c0-39.822-10.638-68.949-31.915-87.438 23.438-2.446 44.43-6.144 63.090-11.093 18.83-5.006 38.002-12.914 57.913-24.007s36.523-24.633 49.892-40.903c13.312-16.043 24.121-37.717 32.597-64.569 8.363-26.965 12.686-57.856 12.686-92.672 0-49.721-16.213-91.989-48.583-126.862 15.246-37.319 13.483-79.189-4.949-125.497-11.435-3.698-28.217-1.479-49.835 6.77-21.845 8.249-40.505 17.294-56.661 27.079l-23.495 14.791c-38.172-10.695-77.426-15.986-118.101-15.986s-79.986 5.291-118.158 15.986c-6.599-4.551-15.303-10.069-26.169-16.555-10.923-6.542-28.103-14.45-51.484-23.666-23.495-9.273-41.074-11.947-53.077-8.249-18.034 46.421-19.513 88.178-4.267 125.497-32.37 34.873-48.583 77.198-48.583 126.862 0 34.873 4.21 65.593 12.686 92.274 8.363 26.681 19.115 48.242 32.313 64.626s29.639 30.208 49.55 41.301 39.253 19.001 57.856 24.007c18.603 4.949 39.765 8.533 63.090 11.093-16.441 14.791-26.51 35.84-30.208 63.374-8.647 4.039-17.863 7.111-27.705 9.216-9.842 1.991-21.561 3.072-35.157 3.072s-27.022-4.494-40.334-13.255-24.69-21.618-34.19-38.514c-7.794-13.141-17.806-23.723-29.81-31.915-12.174-8.249-22.187-13.141-30.379-14.791l-12.345-1.934c-8.59 0-14.507 0.91-17.863 2.731-3.243 1.764-4.267 4.096-3.072 7.054s3.129 5.689 5.575 8.59c2.503 2.958 5.12 5.291 8.021 7.396l4.267 3.015c9.045 4.039 17.977 11.89 26.738 23.495 8.761 11.378 15.303 22.073 19.399 31.346l6.144 14.165c5.291 15.588 14.393 28.217 27.079 37.831 12.743 9.785 26.51 15.929 41.301 18.603 14.791 2.503 29.070 4.039 42.837 4.153 13.767 0.171 25.145-0.569 34.19-2.162l14.165-2.446c0 15.588 0.057 33.849 0.341 54.784s0.398 31.915 0.398 33.223c0 7.339-2.617 13.596-8.021 18.432-5.291 5.006-13.483 6.485-24.633 4.324-95.175-31.63-172.885-88.519-232.96-170.894s-90.169-174.933-90.169-277.959c0-85.675 21.106-164.807 63.374-237.17 42.382-72.306 99.726-129.593 172.089-171.918s151.495-63.431 237.17-63.431c85.788 0 164.864 21.163 237.227 63.431s129.707 99.499 171.975 171.975c42.325 72.533 63.317 151.495 63.317 237.17l0.057 0.171z"></path>
        </symbol>
        <symbol id="icon-googleplus" viewBox="0 0 1024 1024">
            <title>Google+</title>
            <path d="M546.873 769.138c0 28.9-11.15 50.347-33.394 64.341s-48.811 20.878-79.758 20.878c-15.588 0-31.004-1.877-46.023-5.461-15.019-3.641-29.468-9.045-43.122-16.27s-24.747-17.351-33.166-30.265-12.516-27.762-12.629-44.601c0-17.522 4.722-32.768 14.279-45.682s22.016-22.699 37.433-29.468 31.061-11.378 46.876-14.279c15.815-2.901 31.915-4.267 48.242-4.267 7.623 0 13.483 0.398 17.749 1.138 0.74 0.398 5.177 3.527 13.141 9.387 8.021 5.803 12.914 9.557 14.848 10.866s6.258 4.779 13.141 10.297c6.827 5.461 11.492 9.728 13.995 12.629s6.087 7.111 10.866 12.857c4.722 5.689 8.021 10.638 9.728 14.848s3.47 9.216 5.177 15.189c1.707 5.916 2.56 11.833 2.56 17.977h0.057zM504.604 457.728c0 22.869-6.258 41.87-18.887 56.889s-30.094 22.585-52.622 22.585c-20.139 0-37.888-8.078-53.134-24.235s-26.169-34.532-32.825-55.182c-6.599-20.594-9.899-40.789-9.899-60.53 0-23.211 6.087-43.065 18.318-59.449s29.696-24.576 52.565-24.576c20.139 0 38.002 8.59 53.419 25.714s26.51 36.409 33.166 57.742 9.956 41.756 9.956 61.099zM565.134 310.841l50.29-36.523h-151.438c-32.37 0-63.033 6.087-92.046 18.318s-53.248 30.834-72.818 55.979c-19.57 25.145-29.468 54.272-29.468 87.438 0 35.442 12.288 64.853 36.864 88.235s54.784 35.157 90.567 35.157c8.363 0 16.555-0.569 24.576-1.707-5.006 11.093-7.396 21.39-7.396 30.834 0 16.782 7.623 34.702 22.869 53.703-66.674 4.551-115.655 16.555-146.887 35.954-17.863 11.093-32.313 25.031-43.122 41.7-10.866 16.782-16.27 34.873-16.27 54.272 0 16.384 3.527 31.175 10.581 44.316s16.27 23.95 27.705 32.313c11.435 8.363 24.576 15.417 39.424 21.106s29.639 9.728 44.316 11.947 29.241 3.47 43.691 3.47c22.869 0 45.852-2.958 68.892-8.818 23.040-5.803 44.658-14.62 64.853-26.283 20.139-11.662 36.523-27.307 49.152-47.161s18.887-42.041 18.887-66.901c0-18.603-3.755-35.726-11.378-51.086-7.623-15.417-16.953-28.103-28.103-38.002-11.036-9.899-22.073-19.001-33.109-27.136-11.093-8.192-20.366-16.498-28.046-25.145-7.623-8.59-11.435-17.067-11.435-25.429s2.958-16.384 8.818-24.235c5.86-7.794 12.971-15.417 21.447-22.585s16.782-15.246 25.145-24.007c8.363-8.818 15.531-20.139 21.447-33.963 5.973-13.881 8.818-29.582 8.818-47.161 0-22.869-4.267-41.87-12.914-56.889s-22.414-32.313-41.415-51.712h47.445l0.057-0.114zM731.477 566.841h73.159v-36.523h-73.159v-73.159h-36.523v73.159h-73.159v36.523h73.159v91.477h36.523v-91.477zM950.841 310.841v548.523c0 45.227-16.043 84.082-48.242 116.281s-70.997 48.242-116.281 48.242h-548.523c-45.34 0-84.082-16.043-116.281-48.242s-48.242-70.997-48.242-116.281v-548.523c0-45.284 16.043-84.082 48.242-116.281s70.997-48.242 116.281-48.242h548.523c45.284 0 84.082 16.043 116.281 48.242s48.242 70.997 48.242 116.281z"></path>
        </symbol>
        <symbol id="icon-home" viewBox="0 0 1024 1024">
            <title>Website</title>
            <path d="M851.854 703.090v283.193c0 10.24-3.755 19.058-11.207 26.567s-16.327 11.207-26.567 11.207h-226.532v-226.532h-150.983v226.532h-226.645c-10.24 0-19.058-3.698-26.567-11.207s-11.207-16.27-11.207-26.567v-283.193c0-0.398 0.114-0.967 0.341-1.707s0.341-1.422 0.341-1.877l339.228-279.609 339.115 279.609c0.455 0.853 0.626 1.991 0.626 3.641v0-0.057zM983.381 662.414l-36.523 43.634c-3.072 3.527-7.282 5.689-12.345 6.485h-1.707c-5.12 0-9.273-1.365-12.345-4.096l-408.235-340.366-408.178 340.366c-4.722 3.129-9.387 4.551-14.165 4.096-5.12-0.796-9.273-3.015-12.402-6.485l-36.523-43.634c-3.129-3.925-4.551-8.59-4.153-13.881s2.617-9.614 6.485-12.743l424.164-353.394c12.629-10.24 27.534-15.36 44.885-15.36s32.256 5.12 44.885 15.36l143.872 120.377v-115.029c0-5.518 1.877-10.069 5.291-13.596s8.021-5.291 13.596-5.291h113.209c5.461 0 10.069 1.707 13.596 5.291s5.291 8.078 5.291 13.596v240.697l129.195 107.349c3.925 3.186 6.087 7.339 6.485 12.743 0.455 5.291-0.91 9.899-4.039 13.938v0h-0.114z"></path>
        </symbol>
        <symbol id="icon-hypem" viewBox="0 0 1024 1024">
            <title>Hypem</title>
            <path d="M923.762 377.685c-42.439-52.167-100.181-93.525-173.113-123.733-72.818-30.265-152.462-45.397-238.706-45.397s-165.945 15.132-238.876 45.397c-72.875 30.265-130.503 71.566-172.999 123.733s-63.659 109.113-63.659 170.61c0 53.077 15.986 102.855 48.014 149.106 32.085 46.478 75.833 85.333 131.413 116.793-3.925 14.165-8.533 27.591-13.767 40.334s-10.126 23.154-14.336 31.289-10.069 17.237-17.294 27.079c-7.225 9.842-12.743 16.839-16.441 20.935-3.698 3.982-9.785 10.866-18.318 20.196s-13.938 15.417-16.441 18.318c-0.398 0.171-1.707 1.877-4.21 4.836-2.503 3.072-3.698 4.494-3.698 4.494l-3.186 4.836c-1.707 2.617-2.617 4.324-2.389 5.006 0.171 0.683-0.171 2.503-1.081 5.291s-0.796 5.006 0.228 6.372v0.569c1.422 6.087 4.21 10.923 8.533 14.677 4.21 3.527 9.045 5.518 14.279 5.518h2.617c22.983-2.901 43.122-6.713 60.473-11.719 92.672-23.666 174.080-66.503 244.11-128.398 26.567 2.901 52.224 4.21 76.971 4.21 86.187 0 165.945-15.189 238.763-45.397 72.818-30.322 130.56-71.566 172.942-123.733 42.496-52.224 63.659-109.056 63.659-170.553 0.057-61.497-21.163-118.386-63.659-170.837v0zM864.085 683.748c-36.978 41.7-86.812 74.866-149.618 99.499-62.805 24.69-130.389 36.921-202.411 36.921-21.561 0-44.544-1.422-69.006-4.267l-30.265-3.129-22.869 20.139c-43.52 38.229-92.16 68.551-145.977 90.738 16.27-28.615 28.672-59.164 37.205-91.25l14.336-50.972-46.137-26.567c-45.966-26.169-81.579-57.173-106.894-93.127-25.259-35.84-37.945-73.671-37.945-113.323 0-48.469 18.489-93.525 55.41-135.225s86.869-74.923 149.618-99.499c62.862-24.576 130.389-36.807 202.468-36.807s139.662 12.288 202.411 36.864c62.862 24.576 112.697 57.799 149.618 99.499s55.467 86.926 55.41 135.282c0 48.469-18.489 93.582-55.41 135.282zM588.174 427.179c-7.566 0-15.246 1.252-23.097 3.925s-15.189 6.144-21.959 10.581c-6.713 4.437-12.572 8.59-17.408 12.459s-9.444 8.078-13.824 12.402c-4.437-4.437-9.045-8.533-13.881-12.402s-10.638-8.078-17.351-12.459-13.995-7.908-21.845-10.581c-7.794-2.617-15.474-3.925-23.040-3.925-27.193 0-48.526 7.509-63.943 22.585s-23.097 35.897-23.097 62.635c0 8.135 1.422 16.498 4.267 25.145 2.901 8.59 6.087 15.986 9.728 22.016s7.794 11.776 12.402 17.749c4.551 5.746 8.021 9.785 10.126 11.947s3.755 3.755 5.006 4.665l113.664 109.625c2.162 2.219 4.836 3.413 8.021 3.413v0.114c3.129 0 5.803-1.195 8.021-3.47l113.493-109.17c27.819-27.819 41.813-55.182 41.813-81.977 0-26.738-7.737-47.616-23.154-62.635-15.303-15.019-36.693-22.585-63.886-22.642v0z"></path>
        </symbol>
        <symbol id="icon-instagram" viewBox="0 0 1024 1024">
            <title>Instagram</title>
            <path d="M851.399 887.979v-370.29h-77.141c7.623 24.007 11.378 48.981 11.378 74.866 0 48.014-12.174 92.274-36.523 132.892s-57.458 72.647-99.442 96.313-87.609 35.442-137.159 35.442c-75.093 0-139.264-25.771-192.569-77.426-53.305-51.541-79.986-113.892-79.986-187.051 0-25.941 3.755-50.859 11.435-74.866h-80.498v370.233c0 9.899 3.3 18.261 9.956 24.974s14.962 10.012 24.917 9.899h610.873c9.557 0 17.749-3.243 24.576-9.899s10.297-15.019 10.297-24.974v0zM689.152 583.396c0-47.218-17.237-87.495-51.712-120.889-34.418-33.337-76.117-50.062-124.871-50.005-48.412 0-89.771 16.725-124.302 50.005s-51.712 73.614-51.712 120.889 17.237 87.609 51.712 120.889c34.418 33.337 75.89 50.005 124.302 50.005 48.754 0 90.283-16.668 124.871-50.005s51.712-73.614 51.712-120.889zM851.399 377.742v-94.265c0-10.695-3.755-19.911-11.435-27.705s-16.953-11.719-28.046-11.719h-99.442c-11.036 0-20.423 3.925-28.046 11.719s-11.378 17.010-11.378 27.705v94.265c0 11.093 3.755 20.366 11.378 28.046s17.010 11.435 28.046 11.435h99.442c11.093 0 20.423-3.755 28.046-11.435s11.435-16.953 11.435-28.046zM950.841 258.901v652.629c0 30.834-11.093 57.344-33.166 79.417s-48.583 33.166-79.417 33.166h-652.629c-30.834 0-57.344-11.093-79.417-33.166s-33.166-48.583-33.166-79.417v-652.629c0-30.834 11.093-57.344 33.166-79.417s48.583-33.166 79.417-33.166h652.629c30.834 0 57.344 11.093 79.417 33.166s33.166 48.583 33.166 79.417z"></path>
        </symbol>
        <symbol id="icon-jsfiddle" viewBox="0 0 1024 1024">
            <title>JSFiddle</title>
            <path d="M872.391 669.241c34.361 14.222 62.066 36.807 83.342 67.584s31.801 65.081 31.801 102.855c0 50.745-18.261 94.151-54.784 130.219s-80.668 54.101-132.437 54.101c-1.195 0-3.072-0.114-5.404-0.284s-3.812-0.284-4.836-0.284h-565.134c-52.622-3.129-97.223-22.471-133.746-58.311s-54.784-79.189-54.784-130.219c0-34.133 8.533-65.536 25.486-94.322s39.822-51.598 68.21-68.21c-3.698-11.947-5.575-24.747-5.575-38.059 0-35.669 12.686-65.991 38.059-91.079 25.429-25.145 56.206-37.547 92.388-37.547 29.355 0 55.979 8.988 79.872 26.965 23.154-47.673 57.685-86.073 103.31-115.2 45.682-29.070 96.199-43.634 151.609-43.634 51.371 0 98.759 12.459 142.165 37.376s77.653 58.766 102.855 101.49 37.831 89.259 37.831 139.776c0 1.877-0.114 4.665-0.228 8.363-0.171 3.698-0.341 6.599-0.171 8.363v0l0.114 0.057zM253.781 792.69c0 37.774 12.971 67.641 39.026 89.657s58.254 32.882 96.597 32.939c42.439 0 79.531-15.36 111.445-45.966-5.006-6.201-12.288-14.962-22.073-26.283s-16.441-19.058-20.196-23.438c-20.708 20.139-43.065 30.151-66.901 30.151-17.010 0-31.46-5.177-43.463-15.474s-17.863-23.893-17.863-40.562c0-16.384 5.973-29.81 17.863-40.391s26.055-15.815 42.496-15.815c13.653 0 26.738 3.243 39.253 9.785 12.459 6.485 23.78 14.962 33.906 25.486s20.139 22.073 30.208 34.873c10.069 12.686 20.764 25.372 32.085 38.059s23.154 24.235 35.726 34.759 27.591 19.058 44.999 25.486c17.522 6.542 36.295 9.785 56.434 9.785 37.376 0 69.063-11.093 94.891-33.223s38.798-51.655 38.798-88.462c0-37.433-13.084-67.186-38.969-89.145-25.998-21.959-58.027-32.939-96.142-32.939-44.26 0-81.522 14.962-111.957 44.942 4.267 5.063 8.875 10.297 13.653 15.872s10.126 11.719 15.986 18.546c6.030 6.827 10.411 12.117 13.426 15.872 20.48-19.797 42.439-29.696 65.991-29.696 16.043 0 30.322 5.177 42.667 15.36s18.603 23.324 18.603 38.969c0 17.579-5.746 31.858-17.294 42.496-11.435 10.695-25.998 15.986-43.577 15.986-13.312 0-26.169-3.243-38.343-9.785s-23.381-14.962-33.337-25.543c-10.069-10.581-20.309-22.073-30.379-34.816-10.183-12.629-20.935-25.372-32.199-38.059s-23.268-24.348-35.954-34.759c-12.686-10.468-27.591-19.058-44.772-25.486-17.237-6.542-35.499-9.842-54.955-9.785-37.774 0-69.803 10.923-96.142 32.768s-39.481 51.086-39.481 88.007l-0.057-0.171z"></path>
        </symbol>
        <symbol id="icon-linkedin" viewBox="0 0 1024 1024">
            <title>LinkedIn</title>
            <path d="M208.555 881.152h131.982v-396.629h-131.982v396.629zM349.127 362.325c-0.398-19.797-7.225-36.181-20.537-49.152s-31.061-19.456-53.134-19.399-40.107 6.485-54.044 19.399c-13.881 12.914-20.878 29.298-20.878 49.152 0 19.456 6.77 35.726 20.309 48.811s31.175 19.684 52.85 19.684h0.569c22.471 0 40.562-6.599 54.272-19.684s20.537-29.355 20.537-48.811zM683.463 881.152h131.982v-227.442c0-58.709-13.881-103.026-41.813-133.177-27.762-30.094-64.569-45.113-110.251-45.113-51.769 0-91.591 22.3-119.41 66.901h1.138v-57.742h-131.982c1.138 25.145 1.138 157.355 0 396.629h131.982v-221.696c0-14.45 1.308-25.145 3.982-32.028 5.575-13.312 14.222-24.69 25.6-34.020s25.543-14.108 42.325-14.108c44.146 0 66.219 29.867 66.219 89.714v212.025l0.284 0.114zM950.841 310.841v548.523c0 45.227-16.043 84.082-48.242 116.281s-70.997 48.242-116.281 48.242h-548.523c-45.34 0-84.082-16.043-116.281-48.242s-48.242-70.997-48.242-116.281v-548.523c0-45.284 16.043-84.082 48.242-116.281s70.997-48.242 116.281-48.242h548.523c45.284 0 84.082 16.043 116.281 48.242s48.242 70.997 48.242 116.281z"></path>
        </symbol>
        <symbol id="icon-mapmarker" viewBox="0 0 1024 1024">
            <title>Lives in</title>
            <path d="M682.667 341.163c0-47.161-16.725-87.381-50.062-120.718-33.28-33.337-73.557-50.062-120.661-50.062s-87.381 16.612-120.718 50.062-50.062 73.614-50.062 120.718 16.725 87.268 50.062 120.718c33.337 33.394 73.614 50.062 120.718 50.062 47.161 0 87.381-16.725 120.661-50.062 33.337-33.337 50.062-73.557 50.062-120.718zM853.39 341.163c0 48.469-7.282 88.235-22.016 119.353l-242.745 516.153c-7.111 14.564-17.579 26.226-31.687 34.645-13.938 8.533-28.843 12.743-44.942 12.743s-30.948-4.21-44.942-12.743c-13.995-8.363-24.405-20.025-31.061-34.645l-243.371-516.153c-14.677-31.118-21.959-70.827-21.959-119.353 0-94.265 33.337-174.706 99.954-241.436 66.674-66.674 147.115-99.954 241.323-99.954s174.649 33.337 241.436 100.011c66.674 66.674 100.011 147.115 99.954 241.323v0z"></path>
        </symbol>
        <symbol id="icon-pdf" viewBox="0 0 1024 1024">
            <title>pdf-file</title>
            <path d="M872.277 297.415c9.614 9.614 17.749 22.642 24.633 39.083 6.827 16.441 10.354 31.573 10.354 45.227v592.782c0 13.767-4.949 25.429-14.45 34.93-9.671 9.614-21.333 14.45-34.987 14.45h-691.541c-13.767 0-25.429-4.892-34.93-14.45s-14.45-21.333-14.45-34.93v-823.182c0-13.767 4.779-25.429 14.45-34.93s21.333-14.45 34.93-14.45h460.971c13.71 0 28.786 3.47 45.397 10.297 16.441 6.827 29.468 15.019 39.026 24.69l160.654 160.427zM643.698 171.975v193.479h193.479c-3.527-9.899-7.225-17.010-11.378-21.106l-161.109-161.109c-4.096-4.153-11.15-7.851-21.049-11.264v0zM841.273 958.066v-526.791h-214.016c-13.71 0-25.429-4.779-34.93-14.45-9.671-9.614-14.45-21.333-14.45-34.93v-214.073h-395.207v790.357l658.603-0.057zM576.853 652.971c11.321 8.875 25.714 18.489 43.236 28.786 20.139-2.446 40.334-3.584 60.075-3.584 50.404 0 80.839 8.363 91.136 25.145 5.518 7.566 5.803 16.441 1.024 26.681 0 0.398-0.114 0.683-0.626 1.081l-1.024 0.967v0.569c-2.048 12.971-14.222 19.513-36.409 19.513-16.498 0-36.238-3.47-59.221-10.297-23.040-6.827-45.227-15.929-66.901-27.193-75.719 8.249-143.019 22.471-201.671 42.61-52.508 89.941-94.037 134.827-124.53 134.827-5.177 0-9.899-1.138-14.45-3.584l-12.345-6.144c-0.341-0.398-1.422-1.138-3.129-2.56-3.47-3.47-4.437-9.671-3.129-18.489 3.129-13.767 12.743-29.525 28.786-47.104s38.798-34.247 67.925-49.607c4.779-3.186 8.761-2.048 11.833 3.129 0.683 0.626 1.024 1.365 1.024 1.991 17.863-29.241 36.238-62.919 55.125-101.319 23.381-46.649 41.131-91.591 53.532-134.827-8.249-28.046-13.483-55.467-15.701-82.034s-1.081-48.469 3.413-65.593c3.755-13.767 10.923-20.594 21.618-20.594h11.321c7.851 0 13.881 2.56 18.034 7.737 6.144 7.168 7.737 18.887 4.665 34.93-0.683 2.048-1.422 3.47-2.048 4.153 0.341 1.081 0.569 2.446 0.569 4.153v15.417c-0.683 42.155-3.129 75.15-7.225 98.816 18.887 56.263 43.918 97.052 75.15 122.425v-0.057h-0.114zM280.462 864.427c17.863-8.249 41.358-35.385 70.542-81.294-17.465 13.71-32.427 28.103-44.999 43.122-12.459 15.189-20.992 27.819-25.486 38.172v0 0zM485.262 391.111c-5.177 14.45-5.518 37.035-1.024 67.982 0.341-2.446 1.593-9.956 3.584-22.642 0-1.024 1.138-8.363 3.584-22.073 0.341-1.422 1.081-2.731 2.048-4.153-0.341-0.341-0.569-0.683-0.569-1.024s-0.057-0.626-0.284-0.74c-0.171-0.114-0.228-0.398-0.228-0.74-0.341-7.566-2.56-13.767-6.713-18.489 0 0.341-0.114 0.683-0.569 1.024v1.024l0.114-0.057zM421.49 731.136c46.251-18.489 95.061-32.37 146.204-41.643-0.683-0.341-2.958-1.991-6.713-4.949-3.755-2.731-6.485-5.177-8.306-6.94-26.055-22.983-47.787-53.134-65.195-90.567-9.273 29.525-23.495 63.374-42.667 101.433-10.354 19.342-18.034 33.564-23.211 42.667v0zM753.835 723.001c-8.306-8.306-32.199-12.345-72.078-12.345 26.055 9.614 47.332 14.45 63.886 14.45 4.779 0 7.851-0.171 9.216-0.569 0.057-0.398-0.341-0.853-0.967-1.593v0 0 0z"></path>
        </symbol>
        <symbol id="icon-soundcloud" viewBox="0 0 1024 1024">
            <title>Soundcloud</title>
            <path d="M348.444 940.146l7.111-107.122-7.111-232.448c-0.341-2.958-1.422-5.461-3.3-7.566s-4.437-3.129-7.339-3.129c-2.674 0-5.063 1.024-7.111 3.129s-3.129 4.608-3.129 7.566l-6.201 232.448 6.201 107.122c0.341 2.958 1.422 5.348 3.3 7.339s4.21 2.901 6.827 2.901c6.542 0 10.126-3.413 10.695-10.24zM480.028 927.232l4.836-93.753-5.291-260.494c0-4.779-1.934-8.363-5.746-10.695-2.389-1.479-4.722-2.219-7.111-2.219s-4.722 0.796-7.111 2.219c-3.868 2.389-5.746 5.973-5.746 10.695l-0.455 2.617-4.437 257.365c0 0.341 1.65 35.271 4.949 104.903v0.455c0 2.958 0.91 5.518 2.617 7.623 2.674 3.243 6.087 4.892 10.183 4.892 3.243 0 6.201-1.365 8.875-4.039 2.617-2.105 3.982-5.006 3.982-8.818l0.512-10.695zM15.474 776.135l8.875 56.889-8.875 55.979c-0.569 2.617-1.934 3.982-3.982 3.982s-3.47-1.365-4.039-3.982l-7.566-55.979 7.566-56.889c0.626-2.617 1.934-3.982 4.039-3.982s3.413 1.365 3.982 3.982zM53.703 741.035l11.492 92.046-11.492 90.283c-0.569 2.674-2.048 3.982-4.437 3.982-2.674 0-4.039-1.479-4.039-4.437l-10.24-89.771 10.183-92.046c0-2.674 1.365-3.982 4.039-3.982 2.446 0 3.925 1.365 4.494 3.982v0zM94.606 724.139l11.15 108.942-11.15 105.358c0 3.243-1.65 4.836-4.949 4.836-2.958 0-4.722-1.593-5.291-4.836l-9.33-105.415 9.33-108.942c0.569-3.584 2.389-5.291 5.291-5.291 3.243 0 4.949 1.82 4.949 5.404zM136.363 721.010l10.183 112.014-10.183 108.487c-0.569 3.925-2.617 5.803-6.201 5.803-3.812 0-5.746-1.934-5.746-5.803l-9.33-108.487 9.33-112.014c0-3.868 1.934-5.746 5.746-5.746 3.584 0 5.689 1.934 6.201 5.746zM178.176 729.031l9.33 103.993-9.33 109.397c-0.569 4.722-2.958 7.111-7.111 7.111-1.764 0-3.3-0.683-4.665-1.991s-2.048-3.015-2.048-5.12l-8.875-109.397 8.875-103.993c0-1.82 0.683-3.356 2.048-4.665s2.901-1.991 4.665-1.991c4.153 0.057 6.485 2.219 7.111 6.713zM219.989 664.064l9.33 168.903-9.33 109.34c0 2.105-0.796 3.925-2.219 5.575s-3.243 2.446-5.291 2.446c-4.722 0-7.339-2.674-8.021-8.021l-8.021-109.397 8.021-168.903c0.569-5.291 3.243-8.021 8.021-8.021 2.105 0 3.812 0.853 5.291 2.446s2.219 3.527 2.219 5.518v0zM261.746 625.892l8.363 207.986-8.363 108.487c0 2.389-0.853 4.324-2.446 6.030s-3.698 2.446-6.030 2.446c-5.291 0-8.306-2.731-8.875-8.42l-7.111-108.43 7.111-207.986c0.569-5.632 3.584-8.363 8.875-8.363 2.389 0 4.437 0.853 6.030 2.446s2.446 3.698 2.446 6.087v-0.114zM305.323 608.142l8.021 224.882-8.021 107.577c-0.569 6.201-3.812 9.33-9.785 9.33-5.575 0-8.704-3.129-9.33-9.33l-7.111-107.577 7.111-224.882c0-2.674 0.91-5.006 2.901-6.827s4.039-2.901 6.485-2.901c2.674 0 4.949 0.91 6.713 2.901s2.731 4.21 3.129 6.827v0zM479.573 937.927v0 0zM391.566 606.322l6.713 226.702-6.713 106.155c0 2.958-1.081 5.575-3.3 7.851-2.219 2.219-4.779 3.356-7.794 3.356s-5.518-1.081-7.566-3.129c-2.105-2.105-3.243-4.722-3.584-8.021l-6.201-106.212 6.201-226.702c0-3.243 1.081-5.973 3.3-8.021s4.779-3.072 7.794-3.072c2.958 0 5.575 0.967 7.794 3.072s3.3 4.722 3.3 8.021v0zM435.541 614.798l6.201 218.681-6.201 104.846c0 3.243-1.138 6.087-3.527 8.533-2.389 2.389-5.234 3.527-8.42 3.527s-6.087-1.138-8.363-3.527c-2.389-2.446-3.698-5.234-4.039-8.533l-5.291-104.846 5.291-218.681c0.341-3.584 1.65-6.542 4.039-8.875s5.177-3.527 8.363-3.527 6.030 1.138 8.249 3.527c2.162 2.389 3.47 5.291 3.755 8.875zM529.806 833.479l-6.201 102.571c0 3.925-1.365 7.111-4.039 9.842-2.674 2.617-5.973 3.925-9.785 3.982-3.812 0-7.111-1.365-9.785-3.982s-4.153-5.973-4.437-9.842l-2.617-50.631-2.617-52.053 5.291-282.681v-1.365c0.626-4.437 2.389-8.021 5.291-10.695 2.674-2.105 5.632-3.129 8.875-3.129 2.389 0 4.608 0.796 6.713 2.219 4.096 2.389 6.542 6.201 7.111 11.548l6.144 284.103zM1024.057 825.003c0 34.702-12.288 64.171-36.921 88.69-24.633 24.405-54.215 36.693-88.917 36.693h-349.355c-3.925-0.626-7.111-2.219-9.785-4.949s-3.982-5.973-4.039-9.785v-399.701c0-6.827 4.153-11.662 12.459-14.677 25.145-10.069 51.94-15.019 80.441-15.019 57.799 0 107.918 19.456 150.187 58.425s66.105 86.926 71.111 143.815c15.701-6.542 32.028-9.785 48.924-9.785 34.702 0 64.341 12.345 88.974 36.921 24.519 24.633 36.864 54.329 36.921 89.316l-0.057-0.057z"></path>
        </symbol>
        <symbol id="icon-twitter" viewBox="0 0 1024 1024">
            <title>Twitter</title>
            <path d="M941.682 408.747c-24.462 35.669-53.817 65.991-88.405 91.079 0.398 5.063 0.626 12.743 0.626 22.926 0 47.218-6.827 94.322-20.651 141.483-13.881 47.047-34.873 92.274-63.033 135.509s-61.781 81.522-100.523 114.972c-38.912 33.223-85.845 59.79-140.743 79.474-54.898 19.854-113.607 29.753-176.128 29.753-98.532 0-188.644-26.283-270.45-79.019 12.686 1.479 26.965 2.162 42.553 2.162 81.806 0 154.738-25.031 218.681-75.207-38.229-0.683-72.306-12.459-102.514-35.214-30.151-22.756-50.859-51.769-62.123-86.983 11.947 1.877 23.097 2.674 33.28 2.674 15.644 0 31.118-1.991 46.308-6.030-40.619-8.363-74.411-28.615-101.205-60.757-26.681-32.199-40.050-69.575-40.050-112.014v-2.219c24.69 13.881 51.257 21.333 79.588 22.357-23.95-15.929-43.065-36.807-57.23-62.635-14.279-25.828-21.39-53.817-21.333-84.025 0-31.915 8.021-61.611 24.007-88.917 43.975 54.158 97.564 97.508 160.597 129.991 63.090 32.597 130.617 50.631 202.638 54.272-2.958-13.824-4.38-27.25-4.38-40.391 0-48.697 17.237-90.226 51.598-124.587 34.304-34.361 75.89-51.541 124.587-51.541 50.916 0 93.81 18.546 128.683 55.637 39.538-7.623 76.857-21.845 111.787-42.553-13.483 41.813-39.31 74.183-77.483 97.109 33.849-3.641 67.641-12.743 101.49-27.25l-0.114 0.057h-0.114z"></path>
        </symbol>
        <symbol id="icon-work" viewBox="0 0 1024 1024">
            <title>Workplace</title>
            <path d="M816.128 172.43c8.249 0 15.36 3.015 21.39 9.045 6.087 6.030 9.102 13.198 9.102 21.39v790.699c0 8.306-3.072 15.417-9.102 21.447s-13.141 9.045-21.39 9.045h-608.313c-8.249 0-15.36-3.015-21.39-9.045s-9.045-13.198-9.045-21.447v-790.699c0-8.249 3.015-15.36 9.045-21.39s13.198-9.045 21.39-9.045h608.313zM420.75 309.305v30.379c0 4.494 1.422 8.078 4.267 10.866s6.485 4.267 10.866 4.267h30.379c4.494 0 8.078-1.422 10.866-4.267s4.267-6.485 4.267-10.866v-30.379c0-4.494-1.422-8.078-4.267-10.866s-6.542-4.267-10.866-4.267h-30.379c-4.494 0-8.078 1.422-10.866 4.267-2.901 2.901-4.267 6.542-4.267 10.866zM420.75 430.933v30.379c0 4.494 1.422 8.078 4.267 10.866s6.485 4.267 10.866 4.267h30.379c4.494 0 8.078-1.422 10.866-4.267s4.267-6.485 4.267-10.866v-30.379c0-4.494-1.422-8.078-4.267-10.866s-6.542-4.267-10.866-4.267h-30.379c-4.494 0-8.078 1.422-10.866 4.267-2.901 2.788-4.267 6.485-4.267 10.866zM420.75 552.505v30.379c0 4.494 1.422 8.078 4.267 10.923s6.485 4.267 10.866 4.267h30.379c4.494 0 8.078-1.422 10.866-4.267s4.267-6.542 4.267-10.923v-30.379c0-4.437-1.422-8.078-4.267-10.866s-6.542-4.267-10.866-4.267h-30.379c-4.494 0-8.078 1.422-10.866 4.267-2.901 2.901-4.267 6.485-4.267 10.866zM420.75 674.247v30.379c0 4.494 1.422 8.078 4.267 10.923 2.901 2.731 6.485 4.267 10.866 4.267h30.379c4.494 0 8.078-1.422 10.866-4.267s4.267-6.542 4.267-10.923v-30.379c0-4.494-1.422-8.135-4.267-10.923s-6.542-4.267-10.866-4.267h-30.379c-4.494 0-8.078 1.422-10.866 4.267-2.901 2.844-4.267 6.542-4.267 10.923zM359.936 826.311v-30.379c0-4.494-1.422-8.078-4.267-10.866s-6.485-4.267-10.866-4.267h-30.379c-4.494 0-8.078 1.422-10.866 4.267-2.901 2.901-4.267 6.542-4.267 10.866v30.379c0 4.494 1.422 8.135 4.267 10.866s6.485 4.267 10.866 4.267h30.379c4.494 0 8.135-1.479 10.866-4.267 2.901-2.844 4.267-6.485 4.267-10.866zM359.936 704.683v-30.549c0-4.437-1.422-8.078-4.267-10.923-2.901-2.731-6.485-4.267-10.866-4.267h-30.379c-4.494 0-8.078 1.479-10.866 4.267-2.901 2.901-4.267 6.599-4.267 10.923v30.549c0 4.437 1.422 8.078 4.267 10.866 2.901 2.901 6.485 4.267 10.866 4.267h30.379c4.494 0 8.135-1.422 10.866-4.267 2.901-2.844 4.267-6.485 4.267-10.866zM359.936 582.997v-30.379c0-4.437-1.422-8.078-4.267-10.866s-6.485-4.267-10.866-4.267h-30.379c-4.494 0-8.078 1.422-10.866 4.267-2.901 2.901-4.267 6.485-4.267 10.866v30.379c0 4.494 1.422 8.078 4.267 10.923s6.485 4.267 10.866 4.267h30.379c4.494 0 8.135-1.422 10.866-4.267 2.901-2.901 4.267-6.485 4.267-10.923zM359.936 461.369v-30.379c0-4.494-1.422-8.078-4.267-10.866-2.844-2.901-6.485-4.267-10.866-4.267h-30.379c-4.494 0-8.078 1.422-10.866 4.267-2.901 2.788-4.267 6.485-4.267 10.866v30.379c0 4.494 1.422 8.078 4.267 10.866s6.485 4.267 10.866 4.267h30.379c4.494 0 8.135-1.422 10.866-4.267 2.901-2.901 4.267-6.485 4.267-10.866zM359.936 339.627v-30.379c0-4.494-1.422-8.078-4.267-10.866-2.844-2.901-6.485-4.267-10.866-4.267h-30.379c-4.494 0-8.078 1.422-10.866 4.267-2.901 2.901-4.267 6.542-4.267 10.866v30.379c0 4.494 1.422 8.078 4.267 10.866s6.485 4.267 10.866 4.267h30.379c4.494 0 8.135-1.422 10.866-4.267 2.901-2.901 4.267-6.485 4.267-10.866zM603.25 948.053v-91.25c0-4.494-1.422-8.135-4.267-10.923s-6.542-4.267-10.866-4.267h-152.121c-4.494 0-8.078 1.479-10.866 4.267-2.901 2.901-4.267 6.542-4.267 10.923v91.25c0 4.437 1.422 8.078 4.267 10.866 2.788 2.788 6.485 4.267 10.866 4.267h152.121c4.494 0 8.078-1.422 10.866-4.267s4.267-6.485 4.267-10.866zM603.25 704.683v-30.549c0-4.437-1.422-8.078-4.267-10.923-2.901-2.731-6.542-4.267-10.866-4.267h-30.379c-4.494 0-8.135 1.479-10.923 4.267-2.844 2.901-4.267 6.599-4.267 10.923v30.549c0 4.437 1.479 8.078 4.267 10.866 2.901 2.901 6.542 4.267 10.923 4.267h30.379c4.494 0 8.078-1.422 10.866-4.267s4.267-6.485 4.267-10.866zM603.25 582.997v-30.379c0-4.437-1.422-8.078-4.267-10.866s-6.542-4.267-10.866-4.267h-30.379c-4.494 0-8.135 1.422-10.923 4.267s-4.267 6.485-4.267 10.866v30.379c0 4.494 1.479 8.078 4.267 10.923 2.901 2.731 6.542 4.267 10.923 4.267h30.379c4.494 0 8.078-1.422 10.866-4.267s4.267-6.485 4.267-10.923zM603.25 461.369v-30.379c0-4.494-1.422-8.078-4.267-10.866s-6.542-4.267-10.866-4.267h-30.379c-4.494 0-8.135 1.422-10.923 4.267s-4.21 6.485-4.21 10.866v30.379c0 4.494 1.479 8.078 4.267 10.866 2.901 2.788 6.542 4.267 10.923 4.267h30.379c4.494 0 8.078-1.422 10.866-4.267s4.21-6.485 4.21-10.866zM603.25 339.627v-30.379c0-4.494-1.422-8.078-4.267-10.866s-6.542-4.267-10.866-4.267h-30.379c-4.494 0-8.135 1.422-10.923 4.267s-4.267 6.542-4.267 10.866v30.379c0 4.494 1.479 8.078 4.267 10.866s6.542 4.267 10.923 4.267h30.379c4.494 0 8.078-1.422 10.866-4.267s4.267-6.485 4.267-10.866zM724.935 826.311v-30.379c0-4.494-1.422-8.078-4.267-10.866s-6.542-4.267-10.923-4.267h-30.492c-4.437 0-8.078 1.422-10.866 4.267-2.731 2.901-4.21 6.542-4.21 10.866v30.379c0 4.494 1.422 8.135 4.21 10.866s6.542 4.267 10.866 4.267h30.436c4.437 0 8.135-1.479 10.923-4.267s4.267-6.485 4.267-10.866zM724.935 704.683v-30.549c0-4.437-1.422-8.078-4.267-10.923-2.901-2.731-6.542-4.267-10.923-4.267h-30.492c-4.437 0-8.078 1.479-10.866 4.267-2.731 2.901-4.21 6.599-4.21 10.923v30.549c0 4.437 1.422 8.078 4.21 10.866 2.901 2.901 6.542 4.267 10.866 4.267h30.436c4.437 0 8.135-1.422 10.923-4.267s4.267-6.485 4.267-10.866zM724.935 582.997v-30.379c0-4.437-1.422-8.078-4.267-10.866s-6.542-4.267-10.923-4.267h-30.492c-4.437 0-8.078 1.422-10.866 4.267-2.731 2.901-4.21 6.485-4.21 10.866v30.379c0 4.494 1.422 8.078 4.21 10.923 2.901 2.731 6.542 4.267 10.866 4.267h30.436c4.437 0 8.135-1.422 10.923-4.267s4.267-6.485 4.267-10.923zM724.935 461.369v-30.379c0-4.494-1.422-8.078-4.267-10.866s-6.542-4.267-10.923-4.267h-30.492c-4.437 0-8.078 1.422-10.866 4.267-2.731 2.901-4.21 6.485-4.21 10.866v30.379c0 4.494 1.422 8.078 4.21 10.866s6.542 4.267 10.866 4.267h30.436c4.437 0 8.135-1.422 10.923-4.267s4.267-6.485 4.267-10.866zM724.935 339.627v-30.379c0-4.494-1.422-8.078-4.267-10.866s-6.542-4.267-10.923-4.267h-30.492c-4.437 0-8.078 1.422-10.866 4.267-2.731 2.901-4.21 6.542-4.21 10.866v30.379c0 4.494 1.422 8.078 4.21 10.866s6.542 4.267 10.866 4.267h30.436c4.437 0 8.135-1.422 10.923-4.267s4.267-6.485 4.267-10.866z"></path>
        </symbol>
    </defs>
</svg>